<svg version="1.1" xmlns="http://www.w3.org/2000/svg" xmlns:xlink="http://www.w3.org/1999/xlink" width="175.02873" height="107.47784" viewBox="0,0,175.02873,107.47784"><g transform="translate(-156.48123,-129.49563)"><g data-paper-data="{&quot;isPaintingLayer&quot;:true}" fill-rule="nonzero" stroke-linecap="butt" stroke-linejoin="miter" stroke-miterlimit="10" stroke-dasharray="" stroke-dashoffset="0" style="mix-blend-mode: normal"><path d="M330.96218,221.22423c-0.06966,8.76835 -7.40698,15.82001 -16.3824,15.74871l-139.40512,-1.10751c-8.97731,-0.07133 -16.19786,-7.24048 -16.12821,-16.00699l0.54918,-69.12635c0.06966,-8.76835 7.40319,-15.81818 16.3805,-15.74687l139.4032,1.10748c8.98107,0.07136 16.19979,7.23682 16.13013,16.00517l-0.54918,69.12635z" fill="#b0b0b0" stroke="none" stroke-width="1"/><path d="M328.39744,215.73519c-0.06966,8.76835 -7.40696,15.82003 -16.38238,15.74871l-139.4051,-1.10751c-8.97731,-0.07133 -16.19788,-7.2405 -16.12823,-16.00699l0.54917,-69.12636c0.06966,-8.76835 7.40319,-15.81818 16.3805,-15.74687l139.4032,1.10749c8.98107,0.07136 16.19979,7.23682 16.13013,16.00518l-0.54918,69.12637z" fill="#e4e4e4" stroke="none" stroke-width="1"/><path d="M315.51032,148.20284l-0.52213,65.7234c-0.03989,5.0211 -4.15482,9.07291 -9.17944,9.03299l-129.45906,-1.0285c-5.01934,-0.03987 -9.07289,-4.15657 -9.03301,-9.17767l0.52215,-65.72514c0.03988,-5.0211 4.15834,-9.07288 9.17768,-9.033l129.45904,1.02848c5.0246,0.03992 9.07465,4.15836 9.03476,9.17945z" fill="#2733a0" stroke="none" stroke-width="1"/><path d="M306.74888,135.56495c0.00576,-0.72672 0.59954,-1.31112 1.32625,-1.30533c0.72672,0.00576 1.31112,0.59954 1.30534,1.32625c-0.00576,0.72672 -0.59954,1.31112 -1.32625,1.30535c-0.72672,-0.00576 -1.31112,-0.59955 -1.30534,-1.32625z" fill="#8b8b8b" stroke="none" stroke-width="0.5"/><path d="M298.53249,134.59859c0.01154,-1.45339 1.19914,-2.62224 2.65251,-2.6107c1.45339,0.01156 2.62225,1.19913 2.6107,2.65252c-0.01154,1.45339 -1.19913,2.62225 -2.65252,2.61069c-1.45339,-0.01156 -2.62223,-1.19913 -2.61069,-2.6525z" fill="#8b8b8b" stroke="none" stroke-width="0.5"/><path d="M176.41142,221.99349c-5.01934,-0.03987 -9.07289,-4.15658 -9.03301,-9.17767l0.52215,-65.72514c0.03988,-5.0211 4.15834,-9.07288 9.17768,-9.033l16.51788,0.21262z" fill="#2d3bbb" stroke="none" stroke-width="1"/><path d="M172.52627,221.00108l15.67301,-82.47332l21.02358,0.16702l-23.78686,83.00957c0,0 -5.06117,-0.15635 -7.2246,-0.22633c-1.90824,-0.06173 -5.68514,-0.47694 -5.68514,-0.47694z" fill="#2a38b0" stroke="none" stroke-width="0"/><path d="M289.682,139.09586l16.51918,0.04983c5.01934,0.03987 9.07289,4.15657 9.03301,9.17766l-0.52215,65.72516c-0.03989,5.0211 -4.15835,9.07289 -9.17769,9.03302z" data-paper-data="{&quot;index&quot;:null}" fill="#2d3bbb" stroke="none" stroke-width="1"/><path d="M305.10645,222.53755c-2.16427,0.03561 -7.22729,0.11153 -7.22729,0.11153l-22.46499,-83.37702l21.02358,0.16702l14.36068,82.71193c0,0 -3.78299,0.35516 -5.69197,0.38654z" data-paper-data="{&quot;index&quot;:null}" fill="#2a38b0" stroke="none" stroke-width="0"/><text transform="translate(172.40496,187.56661) scale(0.63055,0.63055)" font-size="40" xml:space="preserve" fill="#f8f8f8" fill-rule="nonzero" stroke="#f8f8f8" stroke-width="2" stroke-linecap="butt" stroke-linejoin="miter" stroke-miterlimit="10" stroke-dasharray="" stroke-dashoffset="0" font-family="Sans Serif" font-weight="normal" text-anchor="start" style="mix-blend-mode: normal"><tspan x="0" dy="0">3D Designs</tspan></text></g></g></svg>